<svg viewBox="0 0 400 400" xmlns="http://www.w3.org/2000/svg">
  <rect x="0" y="0" width="400" height="400" fill="#23a6d5"/>
  <g>
    <path d="M103.3 293.3C67.3 262.3 49.3 210 49.3 150c0-82.8 67.2-150 150-150s150 67.2 150 150c0 60-18 112.3-54 143.3l-93.3-53.3l-93.3 53.3z" fill="#f5f5f5"/>
    <path d="M202.7 206.7c-24.2 0-43.7-19.5-43.7-43.7c0-24.2 19.5-43.7 43.7-43.7s43.7 19.5 43.7 43.7c0 24.2-19.5 43.7-43.7 43.7zM291.3 181.3l-10.2 13.6l-19.8-14.7l-10.3 13.6l19.9 14.8l-19.9 14.8l10.3 13.6l19.8-14.7l10.2 13.6l10.2-13.6l19.8 14.7l10.3-13.6l-19.9-14.8l19.9-14.8l-10.3-13.6l-19.8 14.7l-10.2-13.6z" fill="#23a6d5"/>
    <path d="M144.7 181.3l-10.2 13.6l-19.8-14.7l-10.3 13.6l19.9 14.8l-19.9 14.8l10.3 13.6l19.8-14.7l10.2 13.6l10.2-13.6l19.8 14.7l10.3-13.6l-19.9-14.8l19.9-14.8l-10.3-13.6l-19.8 14.7l-10.2-13.6z" fill="#23a6d5"/>
  </g>
  <g>
    <rect x="20" y="240" width="100" height="120" fill="#f5f5f5"/>
    <path d="M75 270c-15.5 0-28-12.5-28-28s12.5-28 28-28s28 12.5 28 28s-12.5 28-28 28zM30 260h10v20h-10zM60 260h10v20h-10zM90 260h10v20h-10zM30 290h10v20h-10zM60 290h10v20h-10zM90 290h10v20h-10" /> 
 </g>
  <g>
    <path d="M305 180c0 26.5-21.5 48-48 48s-48-21.5-48-48c0-13.7 5.8-26 15-34.6l-14.5-12.2c-11.5 13.7-18.5 31-18.5 46.8c0 40.2 32.8 73 73 73s73-32.8 73-73c0-15.8-7-33.1-18.5-46.8l-14.5 12.2c9.3 8.6 15 20.9 15 34.6zM283 208h-26v-26h-16v26h-26v16h26v26h16v-26h26V208z" fill="#f5f5f5"/>
    <path d="M305 80c0 26.5-21.5 48-48 48s-48-21.5-48-48c0-13.7 5.8-26 15-34.6l-14.5-12.2c-11.5 13.7-18.5 31-18.5 46.8c0 40.2 32.8 73 73 73s73-32.8 73-73c0-15.8-7-33.1-18.5-46.8l-14.5 12.2c9.3 8.6 15 20.9 15 34.6zM283 108h-26v-26h-16v26h-26v16h26v26h16v-26h26V108z" fill="#f5f5f5"/>
  </g>
  <g>
    <path d="M82.4 75.4c-13.1-13.1-34.4-13.1-47.5 0c-13.1 13.1-13.1 34.4 0 47.5c13.1 13.1 34.4 13.1 47.5 0C95.5 109.8 95.5 88.5 82.4 75.4zM65.9 94.6c-9.3-9.3-9.3-24.4 0-33.7s24.4-9.3 33.7 0s9.3 24.4 0 33.7C90.3 103.9 75.2 103.9 65.9 94.6z" fill="#f5f5f5"/>
    <path d="M317.6 75.4c-13.1-13.1-34.4-13.1-47.5 0s-13.1 34.4 0 47.5c13.1 13.1 34.4 13.1 47.5 0S330.7 88.5 317.6 75.4zM301.1 94.6c-9.3-9.3-9.3-24.4 0-33.7s24.4-9.3 33.7 0s9.3 24.4 
    0 33.7C325.5 103.9 310.4 103.9 301.1 94.6z" fill="#f5f5f5"/>
</g>
</svg>

